<svg width="902" height="201" viewBox="0 0 902 201" fill="none" xmlns="http://www.w3.org/2000/svg">
<path d="M50.2 150.2C67.4 150.2 83.2 141.6 92.4 127.2C95.4 122.6 94.2 116.4 89.6 113.4C85 110.6 78.8 111.8 75.8 116.4C70.2 125.2 60.6 130.4 50.2 130.4C33.6 130.4 19.8 116.6 19.8 100C19.8 83.2 33.6 69.6 50.2 69.6C61.2 69.6 71.2 75.4 76.6 84.8C79.4 89.4 85.4 91 90.2 88.4C94.8 85.6 96.6 79.6 93.8 74.8C84.8 59.4 68.2 49.8 50.2 49.8C22.6 49.8 0.2 72.2 0.2 100C0.2 127.6 22.6 150.2 50.2 150.2ZM154.502 150C182.302 150 204.702 127.4 204.702 99.8C204.702 72 182.302 49.6 154.502 49.6C126.902 49.6 104.302 72 104.302 99.8C104.302 127.4 126.902 150 154.502 150ZM154.502 69.4C171.302 69.4 184.902 83 184.902 99.8C184.902 116.4 171.302 130.2 154.502 130.2C137.702 130.2 124.102 116.4 124.102 99.8C124.102 83 137.702 69.4 154.502 69.4ZM266.411 150.2C283.611 150.2 299.411 141.6 308.611 127.2C311.611 122.6 310.411 116.4 305.811 113.4C301.211 110.6 295.011 111.8 292.011 116.4C286.411 125.2 276.811 130.4 266.411 130.4C249.811 130.4 236.011 116.6 236.011 100C236.011 83.2 249.811 69.6 266.411 69.6C277.411 69.6 287.411 75.4 292.811 84.8C295.611 89.4 301.611 91 306.411 88.4C311.011 85.6 312.811 79.6 310.011 74.8C301.011 59.4 284.411 49.8 266.411 49.8C238.811 49.8 216.411 72.2 216.411 100C216.411 127.6 238.811 150.2 266.411 150.2ZM370.713 150C398.513 150 420.912 127.4 420.912 99.8C420.912 72 398.513 49.6 370.713 49.6C343.113 49.6 320.513 72 320.513 99.8C320.513 127.4 343.113 150 370.713 150ZM370.713 69.4C387.513 69.4 401.113 83 401.113 99.8C401.113 116.4 387.513 130.2 370.713 130.2C353.913 130.2 340.312 116.4 340.312 99.8C340.312 83 353.913 69.4 370.713 69.4ZM483.013 150.8C510.813 150.8 533.213 128.4 533.213 100.6C533.213 73 510.813 50.4 483.013 50.4C455.413 50.4 432.813 73 432.813 100.6V100.8V190.4C432.813 195.8 437.213 200.2 442.813 200.2C448.213 200.2 452.613 195.8 452.613 190.4V140.6C461.013 147 471.613 150.8 483.013 150.8ZM483.013 70.2C499.813 70.2 513.413 84 513.413 100.6C513.413 117.4 499.813 131 483.013 131C466.213 131 452.613 117.4 452.613 100.8V100.6C452.613 83.8 466.213 70.2 483.013 70.2ZM595.522 50C567.322 50 544.922 72.4 544.922 100.6C544.922 128.8 567.322 149.8 595.522 149.8C606.922 149.8 616.522 147 625.122 139.8C625.122 145.6 630.722 149.8 634.722 149.8C640.522 149.8 644.722 145.6 644.722 139.8V100.6C644.722 72.4 623.722 50 595.522 50ZM595.522 130.2C578.722 130.2 564.522 117.4 564.522 100.6C564.522 83.8 578.722 69.6 595.522 69.6C612.322 69.6 625.122 83.8 625.122 100.6C625.122 117.4 612.322 130.2 595.522 130.2ZM666.278 150.2C671.678 150.2 676.078 145.8 676.078 140.2V9.99999C676.078 4.59999 671.678 0.199997 666.278 0.199997C660.678 0.199997 656.278 4.59999 656.278 9.99999V140.2C656.278 145.8 660.678 150.2 666.278 150.2ZM829.305 90C829.305 68 811.305 50 789.105 50C777.105 50 766.305 55.2 758.905 63.8C751.505 55.2 740.705 50 728.705 50C706.505 50 688.505 68 688.505 90V140.4C688.505 146 692.905 150.4 698.505 150.4C703.905 150.4 708.305 146 708.305 140.4V90C708.305 78.8 717.505 69.8 728.705 69.8C739.905 69.8 748.905 78.8 748.905 90V140.4C748.905 146 753.505 150.4 758.905 150.4C764.305 150.4 768.705 146 768.705 140.4V90C768.705 78.8 777.905 69.8 789.105 69.8C800.305 69.8 809.505 78.8 809.505 90C809.505 90.4 809.505 90.6 809.505 90.8C809.505 91.2 809.505 91.4 809.505 91.8V140.4C809.505 146 813.905 150.4 819.305 150.4C824.705 150.4 829.305 146 829.305 140.4V91.8C829.305 91.4 829.305 91.2 829.105 90.8C829.305 90.6 829.305 90.4 829.305 90ZM892.402 98.8C886.802 93.2 879.202 90 871.202 90C865.602 90 861.002 85.4 861.002 79.8C861.002 74.2 865.602 69.6 871.202 69.6C876.002 69.6 879.402 71.8 880.602 75C882.402 80 887.002 83.6 892.402 82.4C897.802 81.4 901.002 76 900.002 70.6C898.002 59.4 885.202 49.8 871.202 49.8C854.602 49.8 841.202 63.2 841.202 79.8C841.202 87.8 844.202 95.4 850.002 101C855.602 106.6 863.202 109.8 871.202 109.8C876.802 109.8 881.402 114.4 881.402 120C881.402 125.8 876.802 130.4 871.202 130.4C866.402 130.4 864.002 129.6 861.202 124.4C858.602 119.4 854.802 115.6 849.402 116.6C844.202 117.8 840.002 123.2 841.802 128.4C845.602 140 857.002 150.2 871.202 150.2C887.802 150.2 901.202 136.6 901.202 120C901.202 112 898.202 104.6 892.402 98.8Z" fill="#263D4F"/>
</svg>
